<?xml version="1.0" encoding="UTF-8"?>
<svg width="106px" height="50px" viewBox="0 0 106 50" version="1.1" xmlns="http://www.w3.org/2000/svg" xmlns:xlink="http://www.w3.org/1999/xlink">
    <!-- Generator: Sketch 52.3 (67297) - http://www.bohemiancoding.com/sketch -->
    <title>GIFT</title>
    <desc>Created with Sketch.</desc>
    <g id="Mobile" stroke="none" stroke-width="1" fill="none" fill-rule="evenodd">
        <g id="Kookint_ThankYou" transform="translate(-61.000000, -537.000000)">
            <g id="GIFT" transform="translate(61.000000, 537.000000)">
                <g id="Group-2" stroke="#878787" stroke-width="2">
                    <rect id="Rectangle" x="1" y="12" width="36" height="37"></rect>
                    <path d="M13.0308896,12.9304957 C14.677355,12.7797827 16.2930861,9.8379655 16.639726,6.35976305 C16.7689991,5.06262978 16.7035129,3.87408042 16.4851555,2.90134627 C16.1179977,1.2657391 15.3186293,0.240303135 14.2861836,0.334810416 C12.6397182,0.485523407 11.0239871,3.42734062 10.6773472,6.90554307 C10.3307073,10.3837455 11.3844241,13.0812087 13.0308896,12.9304957 Z" id="Oval" transform="translate(13.658537, 6.632653) rotate(-57.000000) translate(-13.658537, -6.632653) "></path>
                    <path d="M24.9691104,12.9304957 C26.6155759,13.0812087 27.6692927,10.3837455 27.3226528,6.90554307 C27.1933797,5.6084098 26.8876034,4.38587609 26.4695537,3.35488694 C25.7666225,1.62132673 24.746262,0.429317698 23.7138164,0.334810416 C22.067351,0.184097425 21.0136342,2.8815606 21.360274,6.35976305 C21.7069139,9.8379655 23.322645,12.7797827 24.9691104,12.9304957 Z" id="Oval" transform="translate(24.341463, 6.632653) rotate(-303.000000) translate(-24.341463, -6.632653) "></path>
                    <path d="M1.374541,20.4298469 L36.2288862,20.4298469" id="Line-Copy-2" stroke-linecap="square"></path>
                    <path d="M19.5,13.5142857 L19.5,48.4857143" id="Line-3" stroke-linecap="square"></path>
                </g>
                <g id="Group-3" transform="translate(44.000000, 23.000000)" stroke="#51A152" stroke-linecap="square">
                    <g id="Group-5">
                        <path d="M0,1.15665584 L30.3541491,1.15665584" id="Line" stroke-width="2"></path>
                        <path d="M0,9.38555195 L44.0126582,9.38555195" id="Line-Copy" stroke-width="1.7"></path>
                        <path d="M0,17.5673701 L60.6139241,17.5673701" id="Line-Copy" stroke-width="1.3"></path>
                    </g>
                </g>
            </g>
        </g>
    </g>
</svg>