<?xml version="1.0" encoding="UTF-8"?>
<svg width="6px" height="16px" viewBox="0 0 6 16" version="1.1" xmlns="http://www.w3.org/2000/svg" xmlns:xlink="http://www.w3.org/1999/xlink">
    <!-- Generator: Sketch 51.1 (57501) - http://www.bohemiancoding.com/sketch -->
    <title>i</title>
    <desc>Created with Sketch.</desc>
    <defs></defs>
    <g id="Symbols" stroke="none" stroke-width="1" fill="none" fill-rule="evenodd">
        <g id="Buttons/Information" transform="translate(-16.000000, -10.000000)" fill="#636363">
            <g id="information" transform="translate(-0.566929, -0.586667)">
                <path d="M21.8091203,12.9660357 C21.8091203,13.187391 21.766803,13.3940946 21.6821672,13.5861529 C21.5975314,13.7782112 21.4819726,13.9442251 21.3354875,14.0841998 C21.1890024,14.2241744 21.0197333,14.3348504 20.827675,14.416231 C20.6356168,14.4976116 20.4289131,14.5383013 20.2075578,14.5383013 C19.9862025,14.5383013 19.7794989,14.4976116 19.5874406,14.416231 C19.3953824,14.3348504 19.2277408,14.2241744 19.0845109,14.0841998 C18.9412811,13.9442251 18.8289775,13.7782112 18.7475969,13.5861529 C18.6662163,13.3940946 18.6255266,13.187391 18.6255266,12.9660357 C18.6255266,12.7446804 18.6662163,12.5379768 18.7475969,12.3459185 C18.8289775,12.1538603 18.9412811,11.9845911 19.0845109,11.838106 C19.2277408,11.6916209 19.3953824,11.5760622 19.5874406,11.4914263 C19.7794989,11.4067905 19.9862025,11.3644732 20.2075578,11.3644732 C20.4289131,11.3644732 20.6356168,11.4067905 20.827675,11.4914263 C21.0197333,11.5760622 21.1890024,11.6916209 21.3354875,11.838106 C21.4819726,11.9845911 21.5975314,12.1538603 21.6821672,12.3459185 C21.766803,12.5379768 21.8091203,12.7446804 21.8091203,12.9660357 Z M18.2251359,15.6222857 L21.1059953,15.6222857 L19.6704484,22.4191607 C19.6378962,22.5298384 19.6167376,22.6388867 19.6069719,22.7463092 C19.5972062,22.8537316 19.5923234,22.9595248 19.5923234,23.063692 C19.5923234,23.3436413 19.657427,23.5373242 19.7876359,23.6447467 C19.9178449,23.7521691 20.122921,23.8058795 20.4028703,23.8058795 C20.5916733,23.8058795 20.7283907,23.7928588 20.8130266,23.766817 C20.8976624,23.7407752 20.9757866,23.7114786 21.0474016,23.6789263 C21.0213598,24.037001 20.941608,24.3446152 20.8081438,24.6017779 C20.6746795,24.8589406 20.507038,25.0721547 20.3052141,25.2414263 C20.1033901,25.410698 19.8755278,25.5360223 19.6216203,25.6174029 C19.3677128,25.6987835 19.1105539,25.7394732 18.8501359,25.7394732 C18.5506553,25.7394732 18.2707102,25.6939008 18.0102922,25.6027545 C17.7498742,25.5116082 17.5236395,25.3683804 17.3315813,25.173067 C17.139523,24.9777535 16.9881573,24.7303601 16.8774797,24.4308795 C16.7668021,24.1313988 16.7114641,23.7700743 16.7114641,23.3468951 C16.7114641,23.1646025 16.7244848,22.9644092 16.7505266,22.7463092 C16.7765684,22.5282091 16.8156305,22.2922089 16.8677141,22.0383013 L18.2251359,15.6222857 Z" id="i"></path>
            </g>
        </g>
    </g>
</svg>