<?xml version="1.0" encoding="UTF-8"?>
<svg width="6px" height="15px" viewBox="0 0 6 15" version="1.1" xmlns="http://www.w3.org/2000/svg" xmlns:xlink="http://www.w3.org/1999/xlink">
    <!-- Generator: Sketch 51.1 (57501) - http://www.bohemiancoding.com/sketch -->
    <title>Buttons/Information Copy</title>
    <desc>Created with Sketch.</desc>
    <defs></defs>
    <g id="Buttons/Information-Copy" stroke="none" stroke-width="1" fill="none" fill-rule="evenodd">
        <g id="information" fill="#636363">
            <path d="M5.80912032,1.96603571 C5.80912032,2.18739099 5.76680303,2.39409465 5.68216719,2.5861529 C5.59753135,2.77821115 5.48197261,2.94422512 5.3354875,3.08419978 C5.1890024,3.22417443 5.01973325,3.33485041 4.827675,3.41623103 C4.63561675,3.49761164 4.42891309,3.53830134 4.20755782,3.53830134 C3.98620254,3.53830134 3.77949888,3.49761164 3.58744063,3.41623103 C3.39538238,3.33485041 3.22774082,3.22417443 3.08451094,3.08419978 C2.94128106,2.94422512 2.82897749,2.77821115 2.74759688,2.5861529 C2.66621626,2.39409465 2.62552657,2.18739099 2.62552657,1.96603571 C2.62552657,1.74468044 2.66621626,1.53797678 2.74759688,1.34591853 C2.82897749,1.15386027 2.94128106,0.984591134 3.08451094,0.838106027 C3.22774082,0.691620919 3.39538238,0.576062179 3.58744063,0.491426339 C3.77949888,0.406790499 3.98620254,0.364473214 4.20755782,0.364473214 C4.42891309,0.364473214 4.63561675,0.406790499 4.827675,0.491426339 C5.01973325,0.576062179 5.1890024,0.691620919 5.3354875,0.838106027 C5.48197261,0.984591134 5.59753135,1.15386027 5.68216719,1.34591853 C5.76680303,1.53797678 5.80912032,1.74468044 5.80912032,1.96603571 Z M2.22513594,4.62228571 L5.10599532,4.62228571 L3.67044844,11.4191607 C3.63789619,11.5298384 3.61673755,11.6388867 3.60697188,11.7463092 C3.5972062,11.8537316 3.59232344,11.9595248 3.59232344,12.063692 C3.59232344,12.3436413 3.65742696,12.5373242 3.78763594,12.6447467 C3.91784492,12.7521691 4.122921,12.8058795 4.40287032,12.8058795 C4.59167334,12.8058795 4.72839073,12.7928588 4.81302657,12.766817 C4.89766241,12.7407752 4.97578662,12.7114786 5.04740157,12.6789263 C5.02135977,13.037001 4.94160796,13.3446152 4.80814375,13.6017779 C4.67467954,13.8589406 4.50703799,14.0721547 4.30521407,14.2414263 C4.10339014,14.410698 3.87552783,14.5360223 3.62162032,14.6174029 C3.3677128,14.6987835 3.11055391,14.7394732 2.85013594,14.7394732 C2.55065528,14.7394732 2.27071016,14.6939008 2.01029219,14.6027545 C1.74987422,14.5116082 1.5236395,14.3683804 1.33158125,14.173067 C1.139523,13.9777535 0.988157327,13.7303601 0.87747969,13.4308795 C0.766802054,13.1313988 0.711464065,12.7700743 0.711464065,12.3468951 C0.711464065,12.1646025 0.724484768,11.9644092 0.750526565,11.7463092 C0.776568362,11.5282091 0.815630472,11.2922089 0.867714065,11.0383013 L2.22513594,4.62228571 Z" id="i"></path>
        </g>
    </g>
</svg>